<svg width="136" height="40" viewBox="0 0 136 40" fill="none" xmlns="http://www.w3.org/2000/svg">
<path d="M113.685 32.9008V31.1875C112.469 31.0847 111.332 30.4065 111.012 30.4065H102.755V36.7825C102.755 39.317 105.507 40.8518 107.61 39.4909L116.112 33.9892H114.756C114.168 33.9892 113.685 33.499 113.685 32.9008Z" fill="#DD3B4A"/>
<path d="M135.067 18.2795L107.61 0.507679C105.507 -0.853258 102.755 0.681594 102.755 3.21605V8.79778C108.593 8.79778 114.37 9.50257 115.279 10.2745C115.832 10.7384 117.403 13.6031 118.338 15.3744H118.343C118.61 14.8526 119.111 13.9644 119.449 13.8707C119.927 13.7414 121.815 13.6789 122.061 13.9598C122.284 14.2141 122.069 15.6821 120.906 16.1508C120.129 16.4675 119.383 16.6239 119.027 16.6863C119.062 16.7488 119.075 16.7845 119.075 16.7845C119.075 16.7845 122.89 16.0793 122.89 20.6752C122.89 23.1338 122.723 25.8108 122.315 27.8456C122.069 29.0679 121.731 30.0632 121.283 30.6429L135.067 21.7234C136.309 20.9206 136.309 19.0825 135.067 18.2795Z" fill="#DD3B4A"/>
<path d="M118.364 16.5888C118.105 16.5352 117.829 16.4864 117.53 16.4328C114.809 18.1058 113.132 21.2202 112.254 23.4336H111.745C112.803 20.9035 114.414 17.9676 116.946 16.339C113.685 15.8123 108.553 15.3662 102.755 15.3662V9.54826C109.128 9.54826 114.357 10.3333 115.015 10.851C115.432 11.1989 116.978 14.313 118.364 16.5888Z" fill="#DD3B4A"/>
<path d="M110.604 26.614H102.755V27.9839H108.101C109.721 27.9839 110.244 27.4395 110.604 26.614Z" fill="#DD3B4A"/>
<path d="M111.179 25.1283C111.236 25.008 111.236 24.8428 111.187 24.7133C111.148 24.6151 111.091 24.5706 111.064 24.5706H102.755V25.9361H110.863C110.963 25.6685 111.06 25.3959 111.179 25.1283Z" fill="#DD3B4A"/>
<path d="M119.883 21.8535C120.928 20.3186 120.414 17.8733 119.146 18.3019C116.398 19.2344 114.914 23.0002 115.107 23.1965C115.3 23.3929 118.715 23.5626 119.883 21.8535Z" fill="#DD3B4A"/>
<path d="M115.459 24.6955C115.384 24.6955 115.239 24.7803 115.05 25.03C114.431 25.8376 113.949 27.4483 113.914 27.9838C115.863 27.9705 117.825 27.7741 118.839 27.4886C119.528 27.2969 120.459 25.8825 120.77 24.847C120.92 24.3518 120.862 24.1509 120.818 24.1243L115.459 24.6955Z" fill="#DD3B4A"/>
<path d="M92.5988 18.2181H58.4866C57.8932 18.2181 57.4106 17.7276 57.4106 17.1244V15.88C57.4106 15.3356 57.8108 14.8695 58.3417 14.7962L88.6956 10.6076L88.3688 8.16268L58.0153 12.3513C56.2865 12.5897 54.9828 14.1069 54.9828 15.8802V17.1246C54.9828 19.0883 56.5547 20.6861 58.4866 20.6861H92.5988C93.1922 20.6861 93.6748 21.1767 93.6748 21.7798C93.6748 22.3829 93.1922 22.8735 92.5988 22.8735H48.499C47.9056 22.8735 47.423 22.3829 47.423 21.7798V3.66354H44.9956V21.7796C44.9956 23.7433 46.5671 25.3411 48.4992 25.3411H92.599C94.5309 25.3411 96.1028 23.7433 96.1028 21.7796C96.1028 19.8159 94.5307 18.2181 92.5988 18.2181Z" fill="#1D1D1D"/>
<path d="M39.992 21.1596C39.992 24.2064 39.2339 27.1848 37.788 29.8388H40.5133C41.7649 27.133 42.4196 24.1765 42.4196 21.1596V13.4867H39.9918L39.992 21.1596Z" fill="#1D1D1D"/>
<path d="M34.1818 21.1596C34.1818 24.2064 33.4242 27.1848 31.9779 29.8388H34.7031C35.9573 27.133 36.6094 24.1765 36.6094 21.1596V13.4867H34.1816L34.1818 21.1596Z" fill="#1D1D1D"/>
<path d="M24.4087 13.4867C21.1932 13.4867 18.5775 16.1458 18.5775 19.4139C18.5775 20.7057 18.9908 21.8989 19.6835 22.8737H13.7627C13.1693 22.8737 12.6867 22.3827 12.6867 21.7796V19.4139C12.6867 16.1458 10.0708 13.4867 6.85546 13.4867V15.9545C8.73227 15.9545 10.2591 17.5066 10.2591 19.4141V20.6416C10.2591 21.8725 9.27408 22.8739 8.06311 22.8739H0V25.3413H8.06291C9.24635 25.3413 10.3243 24.883 11.1429 24.1368C11.7853 24.8735 12.7201 25.3413 13.7625 25.3413H27.0246C28.7973 25.3413 30.2395 23.8755 30.2395 22.0734V19.4139C30.2395 16.1458 27.6238 13.4867 24.4087 13.4867ZM27.8121 22.0734C27.8121 22.5147 27.4588 22.8737 27.0248 22.8737H24.4087C22.5319 22.8737 21.0049 21.3216 21.0049 19.4139C21.0049 17.5062 22.5319 15.9543 24.4087 15.9543C26.2855 15.9543 27.8123 17.5064 27.8123 19.4139L27.8121 22.0734Z" fill="#1D1D1D"/>
<path d="M36.6096 8.60002H34.1818V11.0974H36.6096V8.60002Z" fill="#1D1D1D"/>
<path d="M26.2908 8.60002H23.863V11.0974H26.2908V8.60002Z" fill="#1D1D1D"/>
<path d="M31.9958 36.6009C31.9958 38.4751 33.4961 40 35.3399 40H42.4201V38.7332H35.3399C34.1832 38.7332 33.2417 37.7766 33.2417 36.6009C33.2417 35.4252 34.183 34.4687 35.3399 34.4687H42.4201V33.2019H35.3399C33.4961 33.2019 31.9958 34.7268 31.9958 36.6009Z" fill="#1D1D1D"/>
<path d="M92.7585 33.2019H87.7965V39.9996H92.7585C94.6023 39.9996 96.1026 38.4751 96.1026 36.6009C96.1026 34.7268 94.6023 33.2019 92.7585 33.2019ZM92.7585 38.7332H89.0428V34.4683H92.7585C93.9152 34.4683 94.8562 35.425 94.8562 36.6009C94.8562 37.7768 93.9152 38.7332 92.7585 38.7332Z" fill="#1D1D1D"/>
<path d="M43.1682 39.9988H44.7856L46.174 38.2894H51.2083L52.5966 39.9988H54.2117L48.691 33.2019L43.1682 39.9988ZM47.2027 37.023L48.691 35.1906L50.1795 37.023H47.2027Z" fill="#1D1D1D"/>
<path d="M62.6409 33.2019H54.9595L54.9589 39.999H56.2048V37.6565H59.6102L61.5833 39.999H63.2234L61.2503 37.6565H62.6409C63.8494 37.6565 64.8324 36.6573 64.8324 35.429C64.8324 34.2007 63.8494 33.2019 62.6409 33.2019ZM62.6409 36.3901L56.2058 36.3891V34.4683H62.6409C63.162 34.4683 63.5865 34.8993 63.5865 35.429C63.5865 35.9587 63.162 36.3901 62.6409 36.3901Z" fill="#1D1D1D"/>
<path d="M65.5801 34.9964C65.5801 35.9047 66.2495 36.6706 67.1366 36.778L74.6005 37.6813C74.8614 37.7127 75.0585 37.9384 75.0585 38.2055C75.0585 38.4965 74.8255 38.7334 74.5392 38.7334H65.5801V39.9998H74.5392C75.5126 39.9998 76.3044 39.195 76.3044 38.2055C76.3044 37.2972 75.6355 36.5308 74.7478 36.4234L67.2839 35.5201C67.0231 35.4888 66.8262 35.2632 66.8262 34.9962C66.8262 34.7051 67.0593 34.4683 67.3456 34.4683H76.3046V33.2019H67.3456C66.3721 33.2019 65.5801 34.0069 65.5801 34.9964Z" fill="#1D1D1D"/>
<path d="M81.0525 37.5312L78.5054 33.2019H77.0522L81.0525 39.9986L85.0551 33.2019H83.602L81.0525 37.5312Z" fill="#1D1D1D"/>
<path d="M87.0484 33.2019H85.8025V39.9994H87.0484V33.2019Z" fill="#1D1D1D"/>
</svg>
