<svg xmlns="http://www.w3.org/2000/svg" viewBox="0 0 78 34">
<path d="M 74.188 15.387 C 74.188 15.387 70.251 14.177 70.332 8.345 C 70.414 2.508 65.028 1.626 61.693 2.031 C 58.355 2.435 52.968 4.625 53.049 10.441 C 53.13 16.257 49.19 18.414 49.19 18.414 L 49.19 28.145 L 74.189 25.119 Z M 55.05 17.248 C 55.05 13.632 58.023 10.341 61.689 9.897 C 65.355 9.453 68.329 12.024 68.329 15.64 L 55.052 17.248 Z M 57.599 28.487 L 65.774 27.496 C 65.774 29.724 63.944 31.749 61.687 32.023 C 59.43 32.295 57.6 30.714 57.6 28.487" fill="rgb(19,46,245)"/>
<path d="M 73.32 1.947 C 73.551 1.946 73.773 2.037 73.937 2.198 C 74.099 2.363 74.189 2.585 74.188 2.816 C 74.191 3.164 73.983 3.48 73.662 3.618 C 73.554 3.663 73.437 3.686 73.319 3.686 C 73.088 3.686 72.865 3.595 72.701 3.433 C 72.539 3.268 72.45 3.047 72.451 2.816 C 72.448 2.468 72.655 2.152 72.976 2.014 C 73.085 1.969 73.201 1.946 73.319 1.947 M 73.319 2.071 C 73.121 2.069 72.931 2.148 72.793 2.288 C 72.654 2.429 72.58 2.619 72.585 2.816 C 72.585 2.92 72.603 3.018 72.639 3.108 C 72.75 3.384 73.019 3.565 73.318 3.561 C 73.616 3.564 73.886 3.384 73.996 3.108 C 74.033 3.015 74.052 2.916 74.051 2.816 C 74.053 2.62 73.978 2.43 73.842 2.288 C 73.704 2.148 73.515 2.07 73.319 2.07 M 73.127 3.317 L 73.003 3.317 L 73.003 2.313 L 73.389 2.313 C 73.503 2.313 73.586 2.337 73.638 2.385 C 73.69 2.432 73.716 2.501 73.716 2.592 C 73.717 2.631 73.711 2.671 73.696 2.707 C 73.671 2.769 73.622 2.818 73.56 2.843 C 73.529 2.856 73.497 2.866 73.464 2.873 L 73.764 3.319 L 73.618 3.319 L 73.336 2.873 L 73.128 2.873 L 73.128 3.319 M 73.292 2.769 L 73.403 2.766 C 73.436 2.765 73.469 2.758 73.499 2.746 C 73.527 2.736 73.551 2.717 73.568 2.693 C 73.586 2.663 73.595 2.628 73.592 2.593 C 73.592 2.563 73.585 2.534 73.573 2.507 C 73.56 2.485 73.541 2.466 73.519 2.454 C 73.495 2.441 73.469 2.432 73.442 2.427 C 73.413 2.423 73.383 2.421 73.354 2.42 L 73.127 2.42 L 73.127 2.768 L 73.291 2.768 Z M 22.616 11.088 C 23.078 11.088 23.522 11.014 23.95 10.867 C 24.379 10.721 24.753 10.462 25.072 10.091 C 25.162 10.232 25.27 10.363 25.398 10.485 C 25.526 10.606 25.679 10.712 25.858 10.8 C 26.037 10.891 26.258 10.961 26.521 11.011 C 26.782 11.063 27.098 11.089 27.47 11.088 L 30.404 11.088 L 30.404 3.46 L 27.915 3.46 L 27.915 8.885 L 26.719 8.885 C 26.289 8.885 25.994 8.776 25.836 8.558 C 25.678 8.341 25.599 8.009 25.599 7.562 L 25.599 4.303 L 23.109 4.303 L 23.109 7.966 C 23.109 8.348 22.976 8.597 22.708 8.714 C 22.403 8.835 22.078 8.893 21.75 8.886 C 21.278 8.886 20.933 8.767 20.717 8.531 C 20.5 8.295 20.391 7.973 20.391 7.563 L 20.391 4.303 L 17.92 4.303 L 17.92 10.666 C 17.92 11.612 17.695 12.287 17.244 12.689 C 16.791 13.092 16.088 13.293 15.135 13.292 C 14.181 13.292 13.529 13.055 13.065 12.583 C 12.601 12.11 12.369 11.427 12.369 10.533 L 12.369 8.003 L 9.881 8.003 L 9.881 10.628 C 9.881 13.938 11.617 15.592 15.089 15.592 C 15.906 15.592 16.637 15.509 17.282 15.343 C 17.892 15.195 18.457 14.902 18.929 14.49 C 19.382 14.087 19.729 13.557 19.972 12.899 C 20.214 12.241 20.342 11.413 20.355 10.417 C 20.508 10.557 20.79 10.704 21.198 10.858 C 21.608 11.011 22.081 11.088 22.618 11.088 Z M 41.129 14.056 C 41.996 14.056 42.699 13.352 42.699 12.484 L 39.558 12.484 C 39.558 13.351 40.261 14.056 41.127 14.056 Z" fill="rgb(2,20,65)"/>
<path d="M 45.791 6.939 C 45.606 6.179 45.303 5.511 44.881 4.936 C 44.447 4.351 43.879 3.878 43.224 3.556 C 42.541 3.211 41.702 3.039 40.706 3.039 C 40.169 3.039 39.649 3.096 39.146 3.211 C 38.642 3.326 38.243 3.435 37.949 3.537 L 37.949 5.76 C 38.385 5.633 38.83 5.541 39.28 5.483 C 39.721 5.424 40.043 5.395 40.247 5.395 C 40.86 5.395 41.37 5.482 41.778 5.655 C 42.186 5.827 42.521 6.067 42.784 6.374 C 43.045 6.68 43.24 7.047 43.368 7.475 C 43.496 7.903 43.579 8.373 43.617 8.884 L 36.782 8.884 C 36.61 8.884 36.44 8.862 36.274 8.818 C 36.107 8.776 35.951 8.701 35.815 8.597 C 35.677 8.489 35.566 8.351 35.489 8.194 C 35.406 8.029 35.365 7.818 35.365 7.563 L 35.365 4.303 L 32.875 4.303 L 32.875 10.015 C 32.875 10.488 32.853 10.894 32.808 11.233 C 32.763 11.571 32.664 11.852 32.511 12.076 C 32.359 12.299 32.129 12.462 31.822 12.563 C 31.515 12.665 31.1 12.723 30.577 12.736 L 30.577 15.075 C 31.394 15.062 32.097 14.978 32.687 14.825 C 33.276 14.672 33.763 14.416 34.149 14.058 C 34.535 13.701 34.824 13.232 35.017 12.649 C 35.21 12.067 35.313 11.342 35.326 10.474 C 35.543 10.73 35.799 10.896 36.093 10.972 C 36.229 11.008 36.348 11.034 36.457 11.054 L 36.476 11.06 C 36.565 11.078 36.661 11.088 36.762 11.088 L 46.069 11.088 L 46.069 9.305 C 46.069 8.489 45.976 7.7 45.791 6.939 M 5.917 27.841 C 5.915 28.212 5.809 28.451 5.597 28.558 C 5.386 28.665 5.14 28.718 4.859 28.717 C 4.659 28.721 4.459 28.694 4.267 28.637 L 4.254 30.879 C 4.544 30.933 4.839 30.96 5.134 30.96 C 5.823 30.964 6.392 30.906 6.84 30.787 C 7.287 30.667 7.642 30.484 7.905 30.237 C 8.168 29.989 8.354 29.681 8.465 29.311 C 8.575 28.941 8.632 28.501 8.636 27.99 L 8.691 17.583 L 5.972 17.569 Z M 7.332 14.589 C 6.464 14.589 5.762 15.292 5.762 16.16 L 8.902 16.16 C 8.902 15.292 8.2 14.589 7.332 14.589 M 19.123 25.345 L 19.15 20.188 C 19.154 19.601 19.023 19.121 18.756 18.749 C 18.491 18.378 18.137 18.08 17.726 17.881 C 17.287 17.668 16.815 17.526 16.33 17.461 C 15.83 17.388 15.325 17.351 14.819 17.349 C 14.266 17.345 13.714 17.396 13.171 17.502 C 12.658 17.6 12.165 17.782 11.713 18.041 C 11.277 18.294 10.918 18.63 10.635 19.051 C 10.353 19.471 10.19 20 10.148 20.638 L 12.868 20.653 C 12.921 20.116 13.105 19.734 13.419 19.506 C 13.732 19.278 14.151 19.165 14.675 19.168 C 14.918 19.169 15.145 19.186 15.355 19.22 C 15.565 19.252 15.749 19.317 15.909 19.414 C 16.069 19.511 16.196 19.646 16.289 19.818 C 16.384 19.992 16.431 20.226 16.431 20.519 C 16.429 20.8 16.338 21.014 16.158 21.16 C 15.978 21.305 15.738 21.416 15.438 21.491 C 15.101 21.572 14.759 21.628 14.413 21.658 C 14.031 21.694 13.628 21.743 13.206 21.805 C 12.785 21.866 12.372 21.95 11.969 22.057 C 11.567 22.164 11.206 22.325 10.885 22.54 C 10.565 22.755 10.308 23.045 10.115 23.409 C 9.921 23.771 9.822 24.234 9.819 24.797 C 9.817 25.308 9.901 25.749 10.071 26.12 C 10.24 26.492 10.478 26.8 10.783 27.044 C 11.088 27.288 11.445 27.472 11.852 27.595 C 12.26 27.718 12.7 27.782 13.172 27.785 C 13.783 27.789 14.391 27.699 14.973 27.516 C 15.557 27.337 16.086 27.014 16.511 26.575 C 16.532 26.902 16.594 27.224 16.696 27.535 L 19.454 27.55 C 19.327 27.344 19.24 27.037 19.191 26.628 C 19.142 26.219 19.119 25.79 19.121 25.343 Z M 16.412 23.7 C 16.412 23.853 16.395 24.058 16.361 24.314 C 16.325 24.581 16.235 24.838 16.098 25.07 C 15.939 25.335 15.714 25.555 15.444 25.708 C 15.149 25.885 14.733 25.973 14.197 25.97 C 13.985 25.969 13.774 25.948 13.566 25.909 C 13.361 25.87 13.183 25.802 13.03 25.705 C 12.878 25.608 12.758 25.48 12.669 25.32 C 12.58 25.16 12.537 24.952 12.539 24.697 C 12.54 24.454 12.585 24.247 12.675 24.075 C 12.766 23.902 12.885 23.762 13.032 23.654 C 13.179 23.546 13.348 23.461 13.541 23.398 C 13.732 23.336 13.937 23.286 14.155 23.248 C 14.359 23.211 14.572 23.18 14.797 23.156 C 15.02 23.131 15.231 23.101 15.429 23.064 C 15.628 23.026 15.814 22.979 15.985 22.923 C 16.158 22.867 16.302 22.788 16.417 22.686 L 16.411 23.702 Z M 26.881 17.509 C 26.69 17.444 26.49 17.411 26.288 17.41 C 25.953 17.408 25.62 17.458 25.301 17.558 C 24.976 17.658 24.672 17.8 24.39 17.985 C 24.108 18.169 23.857 18.391 23.639 18.652 C 23.421 18.913 23.247 19.196 23.117 19.502 L 23.078 19.502 L 23.089 17.663 L 20.504 17.648 L 20.452 27.557 L 23.17 27.57 L 23.194 23.105 C 23.196 22.671 23.243 22.259 23.335 21.87 C 23.426 21.48 23.577 21.142 23.789 20.857 C 24.001 20.57 24.28 20.345 24.626 20.18 C 24.971 20.016 25.393 19.935 25.891 19.938 C 26.057 19.938 26.229 19.948 26.408 19.97 C 26.587 19.99 26.739 20.013 26.866 20.04 Z M 36.03 25.434 L 36.057 20.279 C 36.061 19.691 35.93 19.211 35.663 18.839 C 35.398 18.468 35.044 18.17 34.634 17.97 C 34.194 17.758 33.723 17.616 33.238 17.552 C 32.737 17.478 32.232 17.44 31.727 17.438 C 31.173 17.434 30.621 17.486 30.079 17.592 C 29.566 17.689 29.073 17.871 28.62 18.131 C 28.188 18.381 27.82 18.727 27.543 19.141 C 27.26 19.56 27.098 20.089 27.055 20.728 L 29.776 20.743 C 29.828 20.205 30.012 19.823 30.326 19.597 C 30.639 19.367 31.058 19.254 31.582 19.258 C 31.825 19.26 32.051 19.277 32.262 19.309 C 32.472 19.341 32.658 19.406 32.818 19.503 C 32.977 19.601 33.104 19.736 33.198 19.908 C 33.291 20.081 33.338 20.315 33.338 20.608 C 33.336 20.89 33.245 21.103 33.065 21.249 C 32.886 21.395 32.646 21.506 32.346 21.581 C 32.009 21.662 31.666 21.718 31.321 21.747 C 30.937 21.784 30.535 21.834 30.113 21.895 C 29.692 21.957 29.28 22.041 28.877 22.148 C 28.474 22.254 28.112 22.415 27.792 22.63 C 27.473 22.846 27.216 23.135 27.022 23.498 C 26.828 23.861 26.73 24.324 26.727 24.887 C 26.724 25.399 26.808 25.839 26.978 26.209 C 27.149 26.581 27.386 26.889 27.69 27.134 C 27.996 27.379 28.352 27.563 28.76 27.686 C 29.167 27.809 29.607 27.872 30.08 27.874 C 30.69 27.879 31.298 27.788 31.881 27.605 C 32.465 27.426 32.994 27.103 33.418 26.665 C 33.441 26.991 33.503 27.314 33.603 27.625 L 36.362 27.639 C 36.235 27.434 36.147 27.127 36.098 26.717 C 36.05 26.309 36.026 25.881 36.028 25.433 Z M 33.32 23.791 C 33.32 23.945 33.303 24.149 33.269 24.404 C 33.232 24.671 33.143 24.929 33.006 25.161 C 32.847 25.427 32.621 25.646 32.351 25.799 C 32.056 25.977 31.64 26.064 31.105 26.061 C 30.894 26.06 30.683 26.039 30.475 25.999 C 30.27 25.959 30.091 25.891 29.938 25.795 C 29.788 25.699 29.664 25.566 29.578 25.41 C 29.489 25.25 29.445 25.042 29.447 24.786 C 29.448 24.543 29.494 24.336 29.583 24.164 C 29.674 23.993 29.793 23.852 29.94 23.744 C 30.087 23.636 30.257 23.551 30.449 23.488 C 30.64 23.426 30.845 23.376 31.064 23.338 C 31.267 23.301 31.48 23.27 31.704 23.245 C 31.928 23.222 32.139 23.191 32.337 23.153 C 32.535 23.115 32.72 23.069 32.893 23.013 C 33.051 22.964 33.198 22.884 33.325 22.776 Z M 45.102 22.56 C 44.809 22.347 44.475 22.176 44.1 22.046 C 43.72 21.915 43.334 21.805 42.943 21.714 C 42.568 21.624 42.192 21.539 41.815 21.459 C 41.482 21.39 41.153 21.302 40.83 21.195 C 40.543 21.097 40.311 20.972 40.133 20.818 C 39.958 20.67 39.86 20.45 39.868 20.221 C 39.868 20.017 39.92 19.855 40.024 19.734 C 40.125 19.613 40.253 19.518 40.399 19.458 C 40.546 19.394 40.709 19.353 40.888 19.335 C 41.053 19.318 41.219 19.309 41.385 19.309 C 41.87 19.312 42.291 19.407 42.647 19.594 C 43.004 19.782 43.199 20.137 43.234 20.66 L 45.82 20.675 C 45.772 20.061 45.619 19.552 45.36 19.148 C 45.11 18.754 44.774 18.422 44.378 18.174 C 43.964 17.921 43.507 17.744 43.031 17.65 C 42.517 17.544 41.995 17.49 41.471 17.489 C 40.944 17.485 40.418 17.531 39.9 17.625 C 39.415 17.708 38.947 17.873 38.518 18.114 C 38.109 18.349 37.779 18.673 37.528 19.087 C 37.276 19.501 37.149 20.021 37.146 20.648 C 37.143 21.082 37.231 21.449 37.409 21.751 C 37.584 22.052 37.818 22.303 38.111 22.503 C 38.404 22.703 38.739 22.864 39.115 22.987 C 39.491 23.111 39.877 23.218 40.271 23.309 C 40.756 23.414 41.189 23.516 41.572 23.613 C 41.954 23.711 42.275 23.817 42.537 23.934 C 42.797 24.051 42.997 24.183 43.137 24.331 C 43.274 24.473 43.349 24.662 43.346 24.859 C 43.344 25.102 43.286 25.302 43.17 25.461 C 43.054 25.62 42.91 25.747 42.737 25.842 C 42.564 25.938 42.373 26.007 42.162 26.05 C 41.963 26.092 41.761 26.113 41.557 26.113 C 41.296 26.112 41.035 26.079 40.782 26.014 C 40.546 25.955 40.322 25.853 40.123 25.713 C 39.704 25.424 39.461 24.942 39.48 24.434 L 36.895 24.42 C 36.916 25.071 37.063 25.622 37.336 26.071 C 37.607 26.519 37.956 26.882 38.383 27.159 C 38.808 27.436 39.295 27.634 39.844 27.752 C 40.945 27.989 42.083 27.995 43.186 27.769 C 43.699 27.67 44.19 27.477 44.634 27.202 C 45.057 26.936 45.411 26.573 45.664 26.143 C 45.928 25.704 46.062 25.159 46.066 24.508 C 46.068 24.048 45.981 23.661 45.803 23.346 C 45.629 23.035 45.389 22.766 45.1 22.558 Z" fill="rgb(2,20,65)"/>
</svg>
