<svg width="111" height="32" viewBox="0 0 111 32" fill="none" xmlns="http://www.w3.org/2000/svg">
<path d="M21.1616 10.8033C21.1679 9.16043 20.0421 7.40717 17.8758 7.23689L3.53129 6.11115C2.8817 6.0607 2.81548 5.51833 2.80917 5.35436C2.80287 5.19038 2.83755 4.64486 3.48399 4.55341L20.4331 2.16318L20.1273 0.00945999L3.17811 2.39968C1.63298 2.61726 0.586076 3.85968 0.633376 5.42058C0.680675 6.98147 1.80326 8.15767 3.36101 8.28065L17.7055 9.40639C18.929 9.50099 18.9858 10.5794 18.9858 10.7939C18.9858 11.0083 18.9195 12.0867 17.696 12.1719L5.17417 13.0579L5.32869 15.2274L17.8506 14.3413C20.0169 14.1868 21.1553 12.443 21.1616 10.8002V10.8033Z" fill="black"/>
<path d="M29.6819 11.9921C27.4998 11.9921 25.6141 13.2282 24.75 15.2306H27.2885C27.9633 14.4612 28.9061 14.1679 29.6819 14.1679C30.4576 14.1679 31.4004 14.4612 32.0784 15.2306H34.6137C33.7528 13.2282 31.8703 11.9921 29.6819 11.9921Z" fill="black"/>
<path d="M28.6791 2.8443C28.8494 2.43752 29.2435 2.1758 29.685 2.1758C30.1265 2.1758 30.5238 2.43752 30.6941 2.8443L35.8529 15.2306H38.2053L32.6964 2.00867C32.1888 0.788333 31.0063 0 29.6819 0C28.3575 0 27.175 0.788333 26.6673 2.00867L21.1584 15.2306H23.5139L28.6728 2.8443H28.6791Z" fill="black"/>
<path d="M41.8033 15.2306H49.6866V13.0548H41.8033C41.2041 13.0548 40.7154 12.566 40.7154 11.9669V0.00945999H38.5396V11.9637C38.5396 13.7643 40.0027 15.2274 41.8033 15.2274V15.2306Z" fill="black"/>
<path d="M89.4627 15.2306H93.4485C95.2491 15.2306 96.7122 13.7674 96.7122 11.9669V2.1758H94.5364V11.9669C94.5364 12.566 94.0476 13.0548 93.4485 13.0548H89.4627C86.6625 13.0548 84.3858 10.7781 84.3858 7.97793V0H82.21V7.97793C82.21 11.9763 85.4643 15.2306 89.4627 15.2306Z" fill="black"/>
<path d="M54.3441 15.2306H62.9558V13.0548H54.3441C53.7449 13.0548 53.2562 12.566 53.2562 11.9669V3.2637C53.2562 2.66456 53.7449 2.1758 54.3441 2.1758H62.9558V0H54.3441C52.5435 0 51.0804 1.46315 51.0804 3.2637V11.9637C51.0804 13.7643 52.5435 15.2274 54.3441 15.2274V15.2306Z" fill="black"/>
<path d="M62.9558 6.52739H54.7319V8.70319H62.9558V6.52739Z" fill="black"/>
<path d="M68.6949 8.70319H75.2223C76.4237 8.70319 77.3981 9.68073 77.3981 10.879C77.3981 12.0773 76.4205 13.0548 75.2223 13.0548H65.4312V15.2306H75.2223C77.6219 15.2306 79.5739 13.2787 79.5739 10.879C79.5739 8.47931 77.6219 6.52739 75.2223 6.52739H68.6949C67.4934 6.52739 66.5191 5.54986 66.5191 4.3516C66.5191 3.15333 67.4966 2.1758 68.6949 2.1758H78.486V0H68.6949C66.2952 0 64.3433 1.95191 64.3433 4.3516C64.3433 6.75128 66.2952 8.70319 68.6949 8.70319Z" fill="black"/>
<path d="M100.121 2.1758H104.473C106.872 2.1758 108.824 4.12771 108.824 6.52739C108.824 8.92708 106.872 10.879 104.473 10.879H101.3V13.0548H104.473C108.071 13.0548 111 10.1253 111 6.52739C111 2.92944 108.071 0 104.473 0H97.9452V18.4943H100.121V2.1758Z" fill="black"/>
<path d="M54.9117 26.7749C54.9117 27.2259 55.0315 27.6484 55.2428 28.0142H44.7516V22.6661H43.484V28.0142H35.3799V26.7749H34.1123V29.9283C34.1123 30.3729 33.7497 30.7324 33.3082 30.7324H32.3243V32.0032H33.3082C34.4528 32.0032 35.3831 31.0729 35.3831 29.9283V29.285H55.5518V28.4399C56.0122 28.957 56.6807 29.285 57.4249 29.285H111.006V28.0142H57.4249C56.7406 28.0142 56.1856 27.4592 56.1856 26.7749H54.9117Z" fill="black"/>
<path d="M30.3157 22.663H29.048V29.2503H30.3157V22.663Z" fill="black"/>
<path d="M25.0938 28.0142H5.32869V29.285H25.0969C26.4812 29.285 27.6038 28.1592 27.6038 26.7781H26.3362C26.3362 27.4624 25.7812 28.0173 25.0969 28.0173L25.0938 28.0142Z" fill="black"/>
<path d="M55.5455 30.7324H49.4469V32.0032H55.5455V30.7324Z" fill="black"/>
<path d="M35.3736 24.5361H34.106V25.6555H35.3736V24.5361Z" fill="black"/>
<path d="M21.7449 30.808H20.4773V31.9275H21.7449V30.808Z" fill="black"/>
<path d="M28.1304 21.8053H30.3188V21.08H29.3003C29.1489 21.08 29.026 20.957 29.026 20.8057C29.026 20.6543 29.1489 20.5345 29.3003 20.5345H29.9562V19.8092H29.3003C28.7485 19.8092 28.3007 20.257 28.3007 20.8088C28.3007 20.9034 28.3196 20.9949 28.3448 21.0832H28.1336V21.8084L28.1304 21.8053Z" fill="black"/>
</svg>
