<?xml version="1.0" encoding="UTF-8"?>
<svg id="Layer_2" data-name="Layer 2" xmlns="http://www.w3.org/2000/svg" xmlns:xlink="http://www.w3.org/1999/xlink" viewBox="0 0 1697.47 623.22">
  <defs>
    <style>
      .cls-1 {
        fill: url(#linear-gradient);
      }
    </style>
    <linearGradient id="linear-gradient" x1="1169.05" y1="529.3" x2="1609.73" y2="88.61" gradientUnits="userSpaceOnUse">
      <stop offset="0" stop-color="#9dcde3"/>
      <stop offset=".47" stop-color="#bfb9ad"/>
      <stop offset="1" stop-color="#ff6e42"/>
    </linearGradient>
  </defs>
  <g id="Layer_1-2" data-name="Layer 1">
    <g>
      <path class="cls-1" d="M1380.09,444.72c32.12,53.99,51,114,56.2,178.5h-98.94c-25.26-142.87-125.22-245.96-263.1-271.32v-103.23c85.3-17.84,145.81-54.7,199.8-121.8l73.54,77.44-102.41,99.36,8.39,5.94c52.94,37.51,95.5,82.97,126.51,135.11ZM1436.39,0h-101.4c12.13,129.14,74.2,234.44,184.58,313.08l9.09,6.48-8.66,7.11c-33.5,27.51-65.96,55.42-94.58,93.47l73.22,73.9c60.41-72.57,118.93-107.23,198.82-117.75v-104.76c-140.51-27.68-239.69-130.85-261.08-271.53Z"/>
      <g>
        <path d="M544.64,73.28c2.13,1.58,4.64,2.42,7.23,2.43h.05c.29,0,.59-.01.84-.03,1.03-.07,2-.27,3.06-.63l124.79-47.23c4.96-1.96,7.92-6.62,7.91-12.63-.29-3.84-2.19-7.31-5.22-9.5-2.02-1.47-4.4-2.24-6.89-2.24-1.3,0-2.6.22-3.91.65l-124.22,45.64c-5.38,1.38-9.14,6.8-9.13,13.08.26,4.27,2.25,8.09,5.48,10.47Z"/>
        <g>
          <path d="M831.85,67.68c-1.81-6.09,1.08-12.67,6.87-15.63l6.28-2.6-.66-1.59c-1.43-3.43-2.18-7.2-2.18-10.92,0-15.55,10.84-28.19,24.17-28.19s23.88,12.64,23.88,28.19c0,12.98-6.82,22.79-19.22,27.63l-24.52,10.09c-1.55.7-3.17,1.06-4.74,1.06-4.61,0-8.39-3.08-9.88-8.03Z"/>
          <path d="M857.08,34.91c0,6.47,3.72,11.35,8.67,11.35s8.69-4.88,8.69-11.35c0-5.71-3.9-10.35-8.69-10.35s-8.67,4.64-8.67,10.35Z"/>
        </g>
        <path d="M588.04,435.75c-10.17,0-19.21,8.2-21.5,19.57l-26.98,108.45-33.15-101.73c-4.02-15.53-16.06-25.96-29.97-25.96s-25.92,10.55-29.64,25.77l-32.65,102.07-26.65-108.45c-2.32-11.43-11.38-19.72-21.54-19.72-6.41,0-12.28,3.02-16.53,8.51-5.15,6.65-6.91,15.73-4.7,24.28l32.19,123.93c4.4,18.39,18.16,30.75,34.23,30.75s29.3-11.96,33.88-29.15l31.93-100.83,31.37,99.98c4.68,17.95,18.43,30,34.21,30s30.17-12.6,34.5-30.67l32.52-124.14c1.93-8.79-.08-17.97-5.38-24.55-4.21-5.23-9.94-8.11-16.14-8.11Z"/>
        <path d="M226.75,431.69c-27.75,0-52.27,12.13-65.61,32.45l-1.59,2.42-1.36-2.56c-11.28-21.14-31.05-32.32-57.17-32.32-20.97,0-39.8,8.49-51.67,23.29l-2.08,2.32-1.08-3.5v-.22c-.68-12.28-10.79-21.9-23.03-21.9S0,442.07,0,454.84v143.23c0,14.57,9.33,25.15,22.18,25.15s21.61-10.58,21.61-25.15v-63.19c0-19.25,6.11-51.54,47.04-51.54s47.33,31.87,47.33,50.87v63.86c0,14.57,9.09,25.15,21.62,25.15s22.17-10.58,22.17-25.15v-64.54c0-22.9,7.77-50.2,44.79-50.2,29.91,0,45.07,15.87,45.07,47.16v67.57c0,14.57,9.32,25.15,22.18,25.15,12.16,0,21.33-10.81,21.33-25.15v-73.66c0-57.2-33.94-92.73-88.58-92.73Z"/>
        <path d="M755.4,435.15c-1.03,0-2.09.09-3.21.28-23.21,1.55-42.69,9.55-56.34,23.14l-2.47,2.46-.46-3.45c-1.61-12.24-11.25-21.83-21.94-21.83-11.87,0-21.89,11.67-21.89,25.48v136.17c0,14,10.15,25.83,22.18,25.83s21.9-11.83,21.9-25.83v-60.12c.25-32.24,23.74-52.26,61.3-52.26h2.1c11.16-.8,20.23-11.93,20.23-24.8,0-13.83-9.6-25.07-21.41-25.07Z"/>
        <path d="M958.15,361.74c-12.11,0-21.58,11.04-21.58,25.14v66.34l-3.01-3.3c-13.24-14.54-32.72-21.63-59.61-21.63-47.87,0-82.61,40.28-82.61,95.79,0,61.16,31.44,99.14,82.06,99.14,26.39,0,46.74-8.48,60.5-25.24l2.41-2.93.63,3.77c.24,1.52.6,2.98,1.15,4.81.76,10.99,9.94,19.59,20.9,19.59,11.61,0,21.08-9.44,21.08-21.06v-215.28c0-14.1-9.65-25.14-21.92-25.14ZM882.42,577.65c-32.59,0-51.27-18.68-51.27-51.22s17.74-50.85,51.27-50.85c36.05,0,53.55,17.39,53.55,53.23,0,31.94-18.49,48.84-53.55,48.84Z"/>
        <path d="M180.99,284.77h167.84c19.59,0,34.02-16.65,34.33-39.61l.57-30.14c0-26.67-8.46-63.34-27.06-80.83-24.74-24.34-62.72-30.16-90.24-30.75-2.07-.06-4.15-.09-6.21-.09-20.49,0-39.45,2.79-53.63,5.22-5.71,1.11-10.66,4.4-13.94,9.27-3.62,5.38-4.88,12.07-3.55,18.84,2.25,11.76,10.34,19.36,20.61,19.36,1.24,0,2.52-.11,3.83-.33,8.99-1.63,27.12-4.36,47.63-4.36,22.6,0,52.99,3.42,69.42,19.68,7.9,7.38,12.16,28.17,12.16,43.98v19.26c0,.8-.23,1.37-.43,1.7l-.5.85h-160.84c-12.32,0-21.61,10.23-21.61,23.8s9.29,24.14,21.61,24.14Z"/>
        <path d="M383.82,350.87c3.79,4.49,8.82,7.05,14.17,7.22,1.82.09,3.67.13,5.51.13,5.61,0,11.13-.39,16.49-1.16,21.34-2.15,39.5-10.25,52.5-23.37,16.02-16.82,24.14-40.38,24.14-70.01V127.59c0-13.31-9.19-24.14-20.76-24.14s-20.49,10.83-20.49,24.14v136.09c0,15.62-3.36,26.61-10.17,33.52-6.89,8.04-19.97,12.12-38.86,12.12-2.45,0-4.77-.07-6.96-.17h-.64c-10.19-.01-19.11,8.86-20.75,20.62-1.04,7.67,1.14,15.56,5.82,21.1Z"/>
        <path d="M906.46,102.77h-107.09c-14.57,0-26.42,13.86-26.42,30.92v80.65c0,12.61-8,22.5-18.23,22.5h-39.97v-100.13c0-17.13-11.48-30.55-26.11-30.55h-86.22c-39.21,0-70.18,36.88-70.5,83.94,0,43.95,30.81,95.03,70.5,95.03h70.6l-.44,2.07c-1.6,7.48-4.79,13.79-9.52,18.83-9.76,9.18-26.18,13.81-48.79,13.81-6.54,0-13.42-.39-21.16-1.18-.89-.16-1.75-.21-2.62-.21-9.13,0-17.32,7.8-19.49,18.55-1.39,7.01.16,14.28,4.24,19.99,3.4,4.79,8.16,7.8,13.39,8.5,6.12.94,15.59,2.09,25.95,2.09,32.28,0,57.23-8.5,74.18-25.32,14.23-13.47,23.57-33.87,25.64-55.93l.16-1.57h40.15c15.43,0,30.55-8.5,40.47-22.78l1.28-1.83,1.44,1.67c12.79,14.81,29.87,22.94,48.08,22.94h61.05c15.17,0,29.93-6.77,42.66-19.59,18.91-19.02,30.53-48.58,30.37-77.11-.29-47.01-33.33-85.28-73.61-85.28ZM674.05,237.51h-72.17c-15.28,0-28.7-25.87-28.96-47.08,0-21.11,12.82-37.04,29.82-37.04h68.09c1.65,0,3.22,2.25,3.22,4.6v79.52ZM907.04,238.53h-61.05c-16.98,0-32.07-27.83-32.07-49.78v-33.48c0-2.46,1.62-4.55,3.53-4.55h89.02c17.37,0,32.07,17.26,32.07,37.69,0,22.55-14.54,50.12-31.49,50.12Z"/>
      </g>
    </g>
  </g>
</svg>